<?xml version="1.0" encoding="iso-8859-1"?>
<!-- Generator: Adobe Illustrator 19.0.0, SVG Export Plug-In . SVG Version: 6.00 Build 0)  -->
<svg version="1.1" id="Capa_1" xmlns="http://www.w3.org/2000/svg" xmlns:xlink="http://www.w3.org/1999/xlink" x="0px" y="0px"
	 viewBox="0 0 512 512" style="enable-background:new 0 0 512 512;" xml:space="preserve">
<path style="fill:#B7E5FF;" d="M186.576,329.763H65.085c-33.549,0-60.746-27.197-60.746-60.746V0H299.39v269.017
	c0,33.549-27.197,60.746-60.746,60.746H186.576z"/>
<path style="fill:#FB4239;" d="M39.051,34.712h225.627v225.627c0,19.17-15.542,34.712-34.712,34.712l0,0v69.424h-34.712v-69.424
	h-86.78v69.424H73.763v-69.424l0,0c-19.17,0-34.712-15.542-34.712-34.712V34.712z"/>
<g>
	<rect x="73.763" y="69.424" style="fill:#B7E5FF;" width="156.203" height="52.068"/>
	<rect x="65.085" y="147.525" style="fill:#B7E5FF;" width="69.424" height="17.356"/>
	<rect x="65.085" y="182.237" style="fill:#B7E5FF;" width="52.068" height="17.356"/>
	<rect x="65.085" y="216.949" style="fill:#B7E5FF;" width="69.424" height="17.356"/>
	<rect x="65.085" y="251.661" style="fill:#B7E5FF;" width="52.068" height="17.356"/>
</g>
<rect x="73.763" y="364.475" style="fill:#2195F2;" width="34.712" height="34.712"/>
<g>
	<path style="fill:#FB4239;" d="M247.322,512c-23.951-0.026-43.364-19.439-43.39-43.39V364.475h17.356V468.61
		c0,14.379,11.655,26.034,26.034,26.034c14.379,0,26.034-11.655,26.034-26.034v-69.424c0-23.96,19.43-43.39,43.39-43.39
		s43.39,19.43,43.39,43.39c0,14.379,11.655,26.034,26.034,26.034s26.034-11.654,26.034-26.034V156.203h17.356v242.983
		c0,23.96-19.43,43.39-43.39,43.39s-43.39-19.43-43.39-43.39c0-14.379-11.655-26.034-26.034-26.034s-26.034,11.654-26.034,26.034
		v69.424C290.686,492.561,271.273,511.974,247.322,512z"/>
	<path style="fill:#FB4239;" d="M444.807,45.499l-23.925,23.925l-23.925-23.925c-6.908-6.908-16.271-10.787-26.034-10.787l0,0
		c-20.332,0-36.821,16.488-36.821,36.821l0,0c0,9.763,3.879,19.126,10.787,26.034l23.925,23.925l52.068,52.068l52.068-52.068
		l23.925-23.925c6.908-6.908,10.787-16.271,10.787-26.034l0,0c0-20.332-16.488-36.821-36.821-36.821l0,0
		C461.078,34.712,451.714,38.591,444.807,45.499z"/>
</g>
<g>
</g>
<g>
</g>
<g>
</g>
<g>
</g>
<g>
</g>
<g>
</g>
<g>
</g>
<g>
</g>
<g>
</g>
<g>
</g>
<g>
</g>
<g>
</g>
<g>
</g>
<g>
</g>
<g>
</g>
</svg>
